:SAMPLES-PER-SECOND 30
:FULLY-SPECIFIED
:DEGREES
149
root  -24.4306 41.3025 37.1612 -2.19896 -0.71701 -0.0210114
RightUpLeg  -0.598752 -6.13689 -2.82141
RightLeg  5.08951 0.531594 2.60677
RightFoot  -0.755651 0.328572 -3.59859
RightToes  1.16414e-010 0 -3.6325e-017
Spine  -1.52943 0.0567955 4.64851
Spine1  6.76295 0.524649 -2.45392
HEad  -8.1997 4.85085 -3.91794
LeftShoulder1  2.12663 -3.52956 -23.8979
LeftArm  -19.717 21.4815 -6.84128
LeftForeArm  16.2921 -16.3566 -2.36367
LeftHand  -0.244104 0.0205437 5.32207
RightShoulder  1.34727 2.22293 16.8823
RightArm  -16.0807 -12.8583 4.88479
RightForeArm  -9.74342 4.66261 4.46794
RightHand  -1.31856 3.48995 -17.3699
LeftUpLeg  -0.689066 4.33339 2.47075
LeftLeg  1.03845 4.48509 -3.86113
LeftFoot  1.68663 -0.156781 1.297
LeftToes  2.00086e-010 -2.05915e-011 4.26721e-011
150
root  -24.3813 41.3144 37.3525 -1.96922 -0.590912 -0.0466309
RightUpLeg  -0.395058 -6.2316 -2.93372
RightLeg  4.85 0.511438 2.66554
RightFoot  -0.873872 0.309037 -3.43517
RightToes  1.16414e-010 0 -3.6325e-017
Spine  -1.32527 -0.259876 4.51227
Spine1  6.28347 0.228734 -2.58485
HEad  -8.62428 5.38997 -3.41578
LeftShoulder1  1.61804 -2.54013 -20.2131
LeftArm  -20.0513 19.8891 -3.31437
LeftForeArm  16.7757 -18.122 -2.77892
LeftHand  -0.244104 0.0205437 5.32207
RightShoulder  0.828963 0.797768 12.1775
RightArm  -16.2578 -11.3697 2.63154
RightForeArm  -10.3201 4.64811 4.508
RightHand  -1.2851 3.26275 -17.3657
LeftUpLeg  -0.651826 4.3192 2.4338
LeftLeg  1.0695 4.44897 -3.90122
LeftFoot  1.42755 -0.161695 1.36547
LeftToes  2.00086e-010 -2.05915e-011 4.26721e-011
151
root  -24.3507 41.3228 37.5244 -1.79913 -0.622971 -0.033844
RightUpLeg  -0.197156 -6.3554 -3.07832
RightLeg  4.66358 0.684074 2.76712
RightFoot  -1.04268 0.289463 -3.28757
RightToes  1.16414e-010 0 -3.6325e-017
Spine  -1.26805 -0.449914 4.08227
Spine1  6.17925 -0.0366315 -2.24723
HEad  -9.01187 5.86946 -3.11145
LeftShoulder1  1.17797 -1.47731 -16.8103
LeftArm  -20.7769 18.2907 -0.938716
LeftForeArm  17.0354 -19.5242 -3.12217
LeftHand  -0.244104 0.0205437 5.32207
RightShoulder  0.423441 -0.713721 7.65369
RightArm  -16.6953 -9.81096 1.16122
RightForeArm  -9.33932 5.11049 4.5112
RightHand  -1.25741 3.33101 -16.879
LeftUpLeg  -0.517902 4.23032 2.34458
LeftLeg  0.98699 4.55279 -3.83925
LeftFoot  1.14723 -0.141693 1.2317
LeftToes  2.00086e-010 -2.05915e-011 4.26721e-011
152
root  -24.3416 41.3286 37.6837 -1.56879 -0.882614 -0.0358276
RightUpLeg  -0.11893 -6.34477 -3.10098
RightLeg  4.47996 0.919592 2.78614
RightFoot  -1.21539 0.270576 -3.14442
RightToes  1.16414e-010 0 -3.6325e-017
Spine  -1.3249 -0.568556 3.59059
Spine1  6.10633 -0.231606 -1.9083
HEad  -9.19843 6.53174 -2.60151
LeftShoulder1  0.787685 -0.317299 -13.4557
LeftArm  -21.6688 16.8829 0.378366
LeftForeArm  17.3101 -20.348 -3.31573
LeftHand  -0.244104 0.0205437 5.32207
RightShoulder  0.175559 -2.0446 4.21869
RightArm  -17.9597 -8.02004 -0.006502
RightForeArm  -9.12207 5.5166 4.38024
RightHand  -1.31178 3.73002 -16.8426
LeftUpLeg  -0.407137 4.20763 2.31028
LeftLeg  0.842998 4.7969 -3.79429
LeftFoot  0.945317 -0.130448 1.15927
LeftToes  2.00086e-010 -2.05915e-011 4.26721e-011
153
root  -24.3442 41.3365 37.8274 -1.15085 -1.22156 -0.0645752
RightUpLeg  -0.268523 -6.20341 -2.99323
RightLeg  4.24195 1.07264 2.71681
RightFoot  -1.29419 0.255371 -3.00264
RightToes  1.16414e-010 0 -3.6325e-017
Spine  -1.56913 -0.679264 3.17812
Spine1  5.9598 -0.394348 -1.70577
HEad  -9.20529 7.28132 -1.95821
LeftShoulder1  0.498942 0.730146 -10.5527
LeftArm  -22.0359 15.4718 1.10852
LeftForeArm  17.2644 -20.1426 -3.26788
LeftHand  -0.244104 0.0205437 5.32207
RightShoulder  0.0500546 -3.00824 2.06354
RightArm  -19.6955 -6.1463 -1.00076
RightForeArm  -10.7159 5.69852 4.22232
RightHand  -1.43675 4.08556 -17.7371
LeftUpLeg  -0.57443 4.22511 2.32563
LeftLeg  0.834713 5.13381 -3.77524
LeftFoot  0.709508 -0.133649 1.22583
LeftToes  2.00086e-010 -2.05915e-011 4.26721e-011
154
root  -24.3443 41.3445 37.9433 -0.621628 -1.52365 -0.0948181
RightUpLeg  -0.591609 -6.08297 -2.88741
RightLeg  4.01895 1.19735 2.67318
RightFoot  -1.2999 0.245929 -2.89788
RightToes  1.16414e-010 0 -3.6325e-017
Spine  -1.87251 -0.740196 2.86067
Spine1  5.78638 -0.52089 -1.44146
HEad  -9.06007 7.77267 -1.57497
LeftShoulder1  0.360924 1.30323 -8.75273
LeftArm  -21.6146 13.8976 1.66376
LeftForeArm  16.3786 -18.6467 -2.96292
LeftHand  -0.244104 0.0205437 5.32207
RightShoulder  -0.0159263 -3.68477 0.421498
RightArm  -20.8972 -4.67267 -1.42603
RightForeArm  -12.4755 5.81457 4.18153
RightHand  -1.56248 4.32138 -18.7962
LeftUpLeg  -0.967542 4.17451 2.31202
LeftLeg  0.924021 5.49927 -3.71724
LeftFoot  0.417469 -0.12992 1.23705
LeftToes  2.00086e-010 -2.05915e-011 4.26721e-011
